# xmcd
# 
# Track frame offsets:
#     150
#     24041
#     53757
#     75254
#     93782
#     118059
#     145168
#     174277
#     183453
#     208278
#     231667
#     253544
#     263818
# 
# Disc length: 3770
# 
# Revision: 6
# Processed by: cddbd v1.5.2PL0 Copyright (c) Steve Scherf et al.
# Submitted via: fre:ac v1.0.17
# 
DISCID=a60eb80d
DTITLE=Rush - Snakes And Arrows
DYEAR=2007
DGENRE=Rock
TTITLE0=Far Cry
TTITLE1=Armor And Sword
TTITLE2=Workin' Them Angels
TTITLE3=The Larger Bowl
TTITLE4=Spindrift
TTITLE5=The Main Monkey Business
TTITLE6=The Way The Wind Blows
TTITLE7=Hope
TTITLE8=Faithless
TTITLE9=Bravest Face
TTITLE10=Good News First
TTITLE11=Malignant Narcissism
TTITLE12=We Hold On
EXTD=
EXTT0=
EXTT1=
EXTT2=
EXTT3=
EXTT4=
EXTT5=
EXTT6=
EXTT7=
EXTT8=
EXTT9=
EXTT10=
EXTT11=
EXTT12=
PLAYORDER=
